<svg width="37" height="36" viewBox="0 0 37 36" fill="none" xmlns="http://www.w3.org/2000/svg">
<path d="M35.2839 17.0508C35.2839 7.8776 27.8476 0.441284 18.6745 0.441284C9.50132 0.441284 2.065 7.8776 2.065 17.0508C2.065 26.2239 9.50132 33.6602 18.6745 33.6602C27.8476 33.6602 35.2839 26.2239 35.2839 17.0508Z" fill="black"/>
<path d="M20.2863 17.9463H17.7788V15.4388L27.2714 5.94626L29.7788 8.45373L20.2863 17.9463Z" stroke="white" stroke-width="2.15124" stroke-miterlimit="10" stroke-linecap="round" stroke-linejoin="round"/>
<path d="M26.7341 11.6776V23.3195C26.7341 24.3045 25.9282 25.1105 24.9431 25.1105H12.4057C11.4207 25.1105 10.6147 24.3045 10.6147 23.3195V10.7821C10.6147 9.79703 11.4207 8.99106 12.4057 8.99106H24.2267" stroke="white" stroke-width="2.15124" stroke-miterlimit="10" stroke-linecap="round" stroke-linejoin="round"/>
</svg>
