<svg width="85" height="85" viewBox="0 0 85 85" fill="none" xmlns="http://www.w3.org/2000/svg">
<path fill-rule="evenodd" clip-rule="evenodd" d="M44.1632 31.4705C47.6946 35.6629 47.2438 41.8529 43.1561 45.2961C39.0685 48.7394 32.8918 48.1319 29.3604 43.9395C25.8289 39.747 26.2797 33.557 30.3674 30.1138C32.3303 28.4604 34.8866 27.6744 37.4738 27.9288C40.0611 28.1832 42.4673 29.4572 44.1632 31.4705Z" stroke="black" stroke-width="3.72202" stroke-linecap="round" stroke-linejoin="round"/>
<path d="M44.5795 44.0971C43.9173 43.3111 42.7432 43.2106 41.9572 43.8727C41.1711 44.5349 41.0706 45.709 41.7328 46.495L44.5795 44.0971ZM51.3243 57.8818C51.9864 58.6678 53.1605 58.7683 53.9466 58.1062C54.7327 57.444 54.8331 56.2699 54.171 55.4839L51.3243 57.8818ZM32.8783 33.4085C32.1688 34.1523 32.1965 35.3303 32.9404 36.0396C33.684 36.7491 34.862 36.7213 35.5715 35.9776L32.8783 33.4085ZM38.8678 35.4727C39.7803 35.9459 40.9036 35.5897 41.3766 34.6773C41.8499 33.7648 41.4937 32.6417 40.5812 32.1686L38.8678 35.4727ZM41.7328 46.495L51.3243 57.8818L54.171 55.4839L44.5795 44.0971L41.7328 46.495ZM35.5715 35.9776C36.3952 35.114 37.7254 34.8803 38.8678 35.4727L40.5812 32.1686C38.0141 30.8371 34.8781 31.312 32.8783 33.4085L35.5715 35.9776Z" fill="black"/>
</svg>
