<svg width="36" height="36" viewBox="0 0 36 36" fill="none" xmlns="http://www.w3.org/2000/svg">
<path d="M32.1693 15.3431C32.1693 13.8362 31.5707 12.3909 30.505 11.3254C29.4395 10.2598 27.9943 9.66116 26.4873 9.66116H9.44137C7.93442 9.66116 6.48928 10.2598 5.42369 11.3254C4.35812 12.3909 3.7594 13.8362 3.7594 15.3431" stroke="black" stroke-width="2.13074" stroke-linecap="round" stroke-linejoin="round"/>
<path d="M32.1692 15.3431L30.7487 26.7071C30.5368 28.2536 29.7818 29.6745 28.6184 30.7154C27.4552 31.7564 25.9597 32.3496 24.3991 32.3891H11.4158C9.8553 32.3496 8.35973 31.7564 7.19647 30.7154C6.0332 29.6745 5.27815 28.2536 5.06625 26.7071L3.64575 15.3431" stroke="black" stroke-width="2.13074" stroke-linecap="round" stroke-linejoin="round"/>
<path d="M12.2963 9.22081C12.2963 7.71385 12.8949 6.26862 13.9605 5.20304C15.026 4.13746 16.4713 3.53883 17.9783 3.53883C19.4851 3.53883 20.9305 4.13746 21.996 5.20304C23.0615 6.26862 23.6603 7.71385 23.6603 9.22081" stroke="black" stroke-width="2.13074" stroke-linecap="round" stroke-linejoin="round"/>
</svg>
